# xmcd
#
# Track frame offsets: 
#        150
#        32123
#        47586
#        74778
#        100784
#        132406
#        161719
#        178684
#        211545
#        234988
#
# Disc length: 3526 seconds
#
# Revision: 1
# Processed by: cddbd v1.5.2PL0 Copyright (c) Steve Scherf et al.
# Submitted via: ExactAudioCopy v1.0b1
#
DISCID=870dc40a
DTITLE=Various Artist - Tranquillity Of Sensorica CD2
DYEAR=2008
DGENRE=Downtempo, Ambient
TTITLE0=Cydelix - Epiros
TTITLE1=D.Batistatos - Shining
TTITLE2=The Omm Squad - Strange Harvest (Side Liner Remix)
TTITLE3=Sensorica - Credo Ut Intelligam
TTITLE4=Will-O'-The-Wisp - Fall Out
TTITLE5=Zero Cult - Blur (Origin Mix)
TTITLE6=D.Batistatos - Summer Wind
TTITLE7=Side Liner - Emotional Diving
TTITLE8=Potlatch - Too Many
TTITLE9=Zero Cult - P-Ray
EXTD=
EXTT0=
EXTT1=
EXTT2=
EXTT3=
EXTT4=
EXTT5=
EXTT6=
EXTT7=
EXTT8=
EXTT9=
PLAYORDER=
